<?xml version="1.0" encoding="utf-8"?>
<svg width="37" height="37" xmlns="http://www.w3.org/2000/svg"><g fill="#ECECE8" stroke="#ECECE8"><path d="M18.338 21a4.271 4.271 0 001.174 2.746c.855.92 1.766 1.784 2.957 2.254a5.247 5.247 0 003.832.042c1.392-.534 2.58-1.466 4.022-1.89a8.578 8.578 0 015.185.114c.116.04.166-.142.051-.182a8.764 8.764 0 00-4.097-.374c-1.428.2-2.63.824-3.88 1.506s-2.564 1.176-4.028.902a5.651 5.651 0 01-1.847-.702 8.083 8.083 0 01-1.522-1.258 6.924 6.924 0 01-1.155-1.34A4.098 4.098 0 0118.528 21c0-.112-.202-.114-.19 0z"/><path d="M23.542 26.382c1.531.83 1.349 3.156 1.883 4.6.57 1.536 2.076 2.262 3.595 2.618.12.028.17-.154.05-.182a6.362 6.362 0 01-2.247-.926c-.793-.56-1.214-1.354-1.416-2.282-.304-1.36-.419-3.368-1.9-4.072-.111-.052-.202.112-.097.164l.132.08zm4.386-.858c.736.822 1.52 1.682 2.559 2.126.476.187.981.294 1.493.316.625.05 1.262.08 1.797.44.1.07.202-.094.097-.162-.929-.644-2.123-.324-3.134-.698-1.097-.4-2.06-1.476-2.814-2.32-.081-.09-.217.044-.136.134l.138.164zm-10.274.676c.127.72.48 1.38 1.012 1.888.49.462 1.076.8 1.618 1.2a3.418 3.418 0 011.332 1.752c.26.846.435 1.716.728 2.552.293.836.702 1.676 1.455 2.2.1.07.202-.094.095-.164-.733-.508-1.12-1.352-1.394-2.166-.275-.814-.443-1.626-.688-2.432a3.38 3.38 0 00-1.076-1.63c-.496-.42-1.069-.742-1.578-1.142a4.076 4.076 0 01-1.417-2.318c-.022-.12-.202-.07-.184.05l.097.21zm.684-5.18a4.14 4.14 0 01-.465 1.682 5.38 5.38 0 01-.913 1.154c-.934.952-1.887 1.78-3.204 2.152-1.416.4-2.752.12-4.03-.536-1.279-.656-2.41-1.368-3.81-1.672a8.83 8.83 0 00-4.643.286c-.115.04-.065.222.05.182a8.623 8.623 0 014.654-.254 9.095 9.095 0 012.225.846c.636.336 1.253.714 1.91 1 1.181.56 2.53.664 3.785.292 1.281-.384 2.226-1.2 3.136-2.118a5.52 5.52 0 001.036-1.316 4.44 4.44 0 00.46-1.718c0-.094-.175-.086-.189 0l-.002.02z"/><path d="M13.448 26.088c-1.48.698-1.46 2.634-1.764 4-.202.908-.607 1.696-1.382 2.254a6.31 6.31 0 01-2.286.952c-.12.028-.069.21.05.182 1.52-.356 3.035-1.08 3.596-2.618.534-1.446.222-3.82 1.883-4.6.112-.052.015-.216-.097-.164v-.006zm-4.356-.78c-.754.844-1.642 1.834-2.739 2.238-1.011.374-2.225.07-3.144.698-.099.068 0 .232.097.162.52-.352 1.141-.4 1.75-.436a4.722 4.722 0 001.54-.32c1.04-.444 1.894-1.386 2.63-2.2.087-.098-.049-.232-.134-.142zm9.258-3.626c-.224.628-.41 1.268-.558 1.918a17.49 17.49 0 00-.293 2.94c-.037 2.222.123 4.524-.99 6.546a7.307 7.307 0 01-2.302 2.534c-.101.068 0 .232.097.164a7.514 7.514 0 003.168-4.82c.219-1.148.217-2.32.219-3.484a21.5 21.5 0 01.24-3.512c.144-.76.347-1.507.607-2.236.035-.116-.14-.166-.188-.05zm.235-4.04V1.1a.1.1 0 00-.101-.1.1.1 0 00-.101.1v16.542a.1.1 0 00.1.1.1.1 0 00.102-.1z"/><path d="M18.575 17.444c-.192-2.628-1.643-5.244-4.222-6.244a5.253 5.253 0 00-3.83-.044c-1.388.53-2.576 1.444-4.018 1.886a8.609 8.609 0 01-5.185-.116c-.118-.038-.168.144-.053.182a8.795 8.795 0 004.097.376c1.428-.2 2.63-.824 3.88-1.506s2.564-1.178 4.03-.902a5.804 5.804 0 013.369 2 7.841 7.841 0 011.74 4.364.1.1 0 00.1.1.1.1 0 00.102-.1l-.01.004z"/><path d="M13.543 10.944c-1.659-.782-1.347-3.158-1.883-4.6-.575-1.544-2.078-2.264-3.6-2.622-.119-.028-.17.154-.05.182a6.435 6.435 0 012.248.926c.793.56 1.214 1.356 1.416 2.282.303 1.36.283 3.29 1.766 4 .09 0 .202-.104.095-.156l.008-.012zm-4.309.82c-.734-.82-1.6-1.776-2.64-2.22a4.7 4.7 0 00-1.491-.316c-.625-.048-1.263-.078-1.799-.44-.1-.068-.202.096-.095.164.927.626 2.129.324 3.142.698 1.097.4 1.993 1.4 2.748 2.248.083.102.216-.042.135-.134zm9.346-1.146a3.825 3.825 0 00-.776-1.818c-.364-.442-.821-.8-1.165-1.244-.466-.634-.668-1.392-.87-2.156a17.847 17.847 0 00-.678-2.2c-.283-.694-.672-1.354-1.303-1.8-.101-.07-.202.094-.095.164 1.226.848 1.532 2.552 1.886 3.89.182.692.374 1.4.768 2 .31.424.663.816 1.054 1.168a3.672 3.672 0 011.012 2.032c.022.12.182.106.164-.014l.004-.022zm-.001 6.854c.297-2.728 1.94-5.494 4.748-6.284 1.416-.4 2.75-.12 4.028.536 1.279.656 2.41 1.368 3.81 1.662a8.795 8.795 0 004.653-.278c.115-.038.067-.22-.05-.182a8.59 8.59 0 01-4.654.254 8.936 8.936 0 01-2.225-.846c-.638-.336-1.253-.712-1.91-1a5.33 5.33 0 00-3.787-.294 6.095 6.095 0 00-3.1 2.16c-.9 1.244-1.618 2.738-1.703 4.266 0 .122.182.122.19 0v.006z"/><path d="M23.635 11.106c1.48-.698 1.452-2.622 1.754-3.988.202-.91.607-1.696 1.384-2.254a6.363 6.363 0 012.284-.954c.121-.028.07-.21-.05-.182-1.52.358-3.036 1.082-3.594 2.62-.536 1.444-.225 3.82-1.886 4.6-.11.052-.014.214.098.162l.01-.004zm4.422.694c.757-.842 1.57-1.75 2.667-2.154 1.011-.374 2.225-.072 3.144-.698.1-.068 0-.232-.097-.164-.52.352-1.14.4-1.75.438a4.771 4.771 0 00-1.54.318c-1.038.444-1.892 1.388-2.63 2.2-.081.092.054.226.135.134l.071-.074zM18.58 7.942c.18-.477.442-.92.776-1.306.396-.49.826-.952 1.286-1.384a20.126 20.126 0 012.68-2.186c.1-.068 0-.232-.098-.164a20.49 20.49 0 00-2.768 2.264 13.69 13.69 0 00-1.288 1.4 4.412 4.412 0 00-.77 1.326c-.038.116.147.166.185.05h-.002zm-3.928 3.646c-.024.782-.055 1.648-.587 2.278-.532.63-1.33.918-2.075 1.134a5.855 5.855 0 00-1.684.76 3.94 3.94 0 00-1.214 1.214.094.094 0 000 .095.096.096 0 00.166-.001c.328-.58.931-1.026 1.495-1.362.628-.372 1.338-.492 2.007-.768.67-.276 1.305-.626 1.67-1.244.364-.618.404-1.4.422-2.106a.095.095 0 00-.095-.094c-.052 0-.1-.024-.1.026l-.005.068zm7.653-.078c.02.712.049 1.476.423 2.106.375.63 1.012.978 1.67 1.246.657.268 1.38.4 2.006.766.565.338 1.168.782 1.495 1.364.061.106.225 0 .166-.096a3.903 3.903 0 00-1.228-1.212 5.793 5.793 0 00-1.679-.746c-.738-.23-1.562-.544-2.074-1.148-.511-.604-.564-1.498-.588-2.278 0-.12-.203-.122-.19 0v-.002z"/></g></svg>